<svg xmlns="http://www.w3.org/2000/svg" viewBox="0 0 32 32">
  <rect width="32" height="32" rx="6" fill="#0a0a14"/>
  <!-- Rail -->
  <line x1="4" y1="10" x2="28" y2="10" stroke="#e0e0e0" stroke-width="2"/>
  <!-- Ball on rail -->
  <circle cx="10" cy="10" r="3" fill="white"/>
  <!-- Zone 1 plinko (small) -->
  <rect x="4" y="14" width="8" height="14" fill="#14142a" rx="1"/>
  <circle cx="6"  cy="17" r="0.8" fill="#4a4a70"/>
  <circle cx="8"  cy="17" r="0.8" fill="#4a4a70"/>
  <circle cx="5"  cy="21" r="0.8" fill="#4a4a70"/>
  <circle cx="7"  cy="21" r="0.8" fill="#4a4a70"/>
  <circle cx="9"  cy="21" r="0.8" fill="#4a4a70"/>
  <rect x="4"  y="25" width="3" height="3" fill="#27ae60" rx="0.5"/>
  <rect x="8"  y="25" width="3" height="3" fill="#e53935" rx="0.5"/>
  <!-- Zone 2 plinko (medium) -->
  <rect x="14" y="14" width="14" height="14" fill="#14142a" rx="1"/>
  <circle cx="17" cy="17" r="0.8" fill="#4a4a70"/>
  <circle cx="21" cy="17" r="0.8" fill="#4a4a70"/>
  <circle cx="15" cy="21" r="0.8" fill="#4a4a70"/>
  <circle cx="19" cy="21" r="0.8" fill="#4a4a70"/>
  <circle cx="23" cy="21" r="0.8" fill="#4a4a70"/>
  <rect x="14" y="25" width="3" height="3" fill="#e53935" rx="0.5"/>
  <rect x="18" y="25" width="3" height="3" fill="#00695c" rx="0.5"/>
  <rect x="22" y="25" width="3" height="3" fill="#e53935" rx="0.5"/>
</svg>
